HIERARCHY
ROOT Hips
{
  OFFSET 0 0 0
  CHANNELS 6 Xposition Yposition Zposition Zrotation Yrotation Xrotation
  JOINT LeftThigh
  {
    OFFSET 8.409438 0 -5.917753
    CHANNELS 3 Zrotation Yrotation Xrotation
    JOINT LeftLeg
    {
      OFFSET 0 0 -42.358652
      CHANNELS 3 Zrotation Yrotation Xrotation
      JOINT LeftFoot
      {
        OFFSET 0 0 -39.357303
        CHANNELS 3 Zrotation Yrotation Xrotation
      }
    }
  }
  JOINT RightThigh
  {
    OFFSET -8.409438 0 -5.917753
    CHANNELS 3 Zrotation Yrotation Xrotation
    JOINT RightLeg
    {
      OFFSET 0 0 -42.358652
      CHANNELS 3 Zrotation Yrotation Xrotation
      JOINT RightFoot
      {
        OFFSET 0 0 -39.357303
        CHANNELS 3 Zrotation Yrotation Xrotation
      }
    }
  }
  JOINT SpineLow
  {
    OFFSET 0 0 4.719101
    CHANNELS 3 Zrotation Yrotation Xrotation
    JOINT SpineMid
    {
      OFFSET 0 0 12.899191
      CHANNELS 3 Zrotation Yrotation Xrotation
      JOINT Chest
      {
        OFFSET 0 0 12.899191
        CHANNELS 3 Zrotation Yrotation Xrotation
        JOINT LeftShoulder
        {
          OFFSET 7.550562 1.41573 9.438202
          CHANNELS 3 Zrotation Yrotation Xrotation
          JOINT LeftArm
          {
            OFFSET 9.155056 0 4.247191
            CHANNELS 3 Zrotation Yrotation Xrotation
            JOINT LeftForearm
            {
              OFFSET 0 0 25.771955
              CHANNELS 3 Zrotation Yrotation Xrotation
              JOINT LeftHand
              {
                OFFSET 0 0 25.197169
                CHANNELS 3 Zrotation Yrotation Xrotation
              }
            }
          }
        }
        JOINT RightShoulder
        {
          OFFSET -7.550562 1.41573 9.438202
          CHANNELS 3 Zrotation Yrotation Xrotation
          JOINT RightArm
          {
            OFFSET -9.155056 0 4.247191
            CHANNELS 3 Zrotation Yrotation Xrotation
            JOINT RightForearm
            {
              OFFSET 0 0 -25.771955
              CHANNELS 3 Zrotation Yrotation Xrotation
              JOINT RightHand
              {
                OFFSET 0 0 -25.197169
                CHANNELS 3 Zrotation Yrotation Xrotation
              }
            }
          }
        }
        JOINT Neck
        {
          OFFSET 0 0 15.101124
          CHANNELS 3 Zrotation Yrotation Xrotation
          JOINT Head
          {
            OFFSET 0 0 11.325843
            CHANNELS 3 Zrotation Yrotation Xrotation
            End Site
            {
              OFFSET 0 0 14.157303
            }
          }
        }
      }
    }
  }
}
MOTION
Frames: 17
Frame Time: 0.0
0.0  101.685394  0.0  -107.144901  52.373907  -178.543485  57.207404  -33.132113  -61.841516  -45.903794  29.957958  10.345595  2.850162  -3.685725  -2.09989  -39.937812  27.605012  -46.649901  20.004574  1.390523  26.310019  2.047983  -28.249479  -42.054631  -2.485434  -1.719194  2.215871  -6.954566  -4.461144  6.235077  -6.954566  -4.461144  6.235077  0.810324  26.546985  8.482865  134.155674  38.172365  174.749877  -44.001359  -8.028362  101.935994  42.864138  22.555686  38.580966  -4.003746  -1.770524  17.462613  63.794395  38.024567  32.668001  -20.04146  16.906176  -153.560291  55.252288  31.595483  31.558414  -5.193512  -16.205374  6.704082  -3.687144  -12.21316  4.853305  
0.0  101.685394  0.0  -102.84177  52.419929  -176.847705  58.134241  -34.048798  -59.800798  -44.116797  28.575716  11.740206  1.503448  -3.999943  -2.070357  -42.4038  25.099717  -48.41379  22.002134  2.308863  28.439737  3.413557  -30.017509  -40.503064  -2.342039  -1.524869  2.520529  -6.559826  -3.914278  7.037555  -6.559826  -3.914279  7.037556  0.553243  26.77381  8.697271  134.003375  39.227088  176.001686  -43.167613  -7.296853  101.959249  41.024264  22.965387  36.028154  -3.878312  -1.608528  17.332847  62.916587  37.490778  31.994995  -20.104222  16.514954  -153.845685  55.417841  30.854115  31.424093  -4.787821  -16.495919  6.990374  -3.372688  -12.428902  5.073779  
0.0  101.685394  0.0  -99.089647  52.598426  -175.397144  59.203558  -34.531822  -57.960412  -43.133769  27.439441  12.645154  -0.016857  -4.187635  -2.169408  -44.058741  23.454972  -49.890027  22.688997  3.504609  30.94335  5.50933  -31.072059  -39.213741  -2.278459  -1.30751  2.746076  -6.372093  -3.306421  7.627586  -6.372093  -3.306421  7.627586  0.469791  27.076798  9.021773  133.08747  40.437568  177.08082  -42.648952  -7.919424  101.686669  38.596271  22.62576  34.434389  -3.980077  -1.304757  17.486355  62.394576  36.806042  31.275209  -20.261905  16.335975  -154.144915  55.613403  29.996902  31.362558  -4.438914  -16.698983  7.440636  -3.097152  -12.580633  5.416142  
0.0  101.685394  0.0  -96.6254  52.80291  -174.031363  60.402755  -34.515203  -57.118664  -43.110421  27.180686  12.865824  -0.887427  -4.329723  -2.443013  -45.403426  21.705046  -51.653674  22.641356  5.099835  34.281231  8.259056  -31.331748  -38.606828  -2.345113  -1.123085  2.815574  -6.534457  -2.788964  7.80098  -6.534457  -2.788964  7.80098  0.499089  27.357892  9.132106  131.332173  41.604215  177.721558  -42.649563  -10.100788  101.088367  35.641718  21.439377  34.153085  -3.887575  -1.01749  17.541088  61.82498  35.910232  30.637348  -20.311272  16.23608  -154.45032  55.832365  29.248111  31.221162  -4.004259  -16.796409  7.847849  -2.760483  -12.651215  5.730287  
0.0  101.685394  0.0  -95.692151  53.033777  -173.127911  61.483474  -33.93134  -57.116748  -44.315017  27.463126  12.376963  -0.972599  -4.225532  -2.739268  -45.332629  20.744123  -53.357012  21.246994  7.440646  38.50424  11.261128  -31.116404  -38.559449  -2.56036  -1.008343  2.757933  -7.106017  -2.456891  7.638822  -7.106017  -2.456891  7.638823  0.536891  27.893516  9.174203  128.97503  42.969529  177.793816  -42.912907  -13.144133  100.179461  32.368842  19.535167  34.591314  -4.018624  -0.568346  17.754301  61.912266  35.24594  30.297981  -20.146135  15.337476  -153.426863  56.013858  28.81969  30.522431  -3.468603  -16.716219  8.144144  -2.354608  -12.58595  5.966849  
0.0  101.685394  0.0  -95.882729  53.247208  -172.714332  62.742064  -33.071664  -57.926523  -46.628622  28.296545  11.190366  -0.456707  -3.908882  -3.012389  -43.905474  21.352754  -55.201224  19.043871  9.247646  43.36013  13.431787  -30.370364  -38.633052  -2.876871  -0.96035  2.62993  -7.960358  -2.304758  7.293895  -7.960358  -2.304758  7.293895  0.521561  28.67571  8.997004  126.210824  44.310487  177.124782  -43.126264  -16.13537  99.166636  29.394041  17.147693  35.198529  -4.011617  -0.019178  17.998928  61.561409  34.505581  29.84026  -19.783403  15.192318  -153.723425  56.317613  28.384662  30.474902  -2.879516  -16.518019  8.36093  -1.913128  -12.430511  6.146818  
0.0  101.685394  0.0  -95.345747  52.471628  -171.205647  65.576926  -32.062861  -60.224734  -49.680315  29.401063  9.650502  0.716249  -3.529452  -3.163424  -40.468141  22.348791  -57.01033  16.924698  10.008882  49.008517  14.524905  -29.136722  -38.856185  -3.118969  -1.059511  2.520713  -8.629188  -2.56226  7.016778  -8.629188  -2.56226  7.016778  0.216035  29.339905  8.0557  124.046799  45.550686  176.278463  -42.940287  -18.395479  98.16743  26.847714  14.64781  34.906531  -3.768642  0.47256  17.844993  61.127514  33.678895  29.558842  -19.667677  14.349237  -152.910681  56.653158  27.874845  30.213006  -2.03092  -16.371513  8.337981  -1.284011  -12.308869  6.154472  
0.0  101.685394  0.0  -95.521854  52.829953  -172.016788  66.32943  -32.195522  -60.447001  -52.214309  30.320185  8.610291  1.965586  -3.163965  -3.190391  -37.284898  26.282787  -58.010565  15.128912  9.293238  54.960853  14.999887  -27.619529  -39.724334  -3.52742  -0.982111  2.646353  -9.73966  -2.288978  7.36171  -9.73966  -2.288978  7.36171  0.48082  29.571559  7.374229  122.829053  46.526995  176.407561  -42.291885  -19.891677  97.293631  24.503977  12.873207  34.964183  -3.261371  1.141897  17.568945  60.899158  32.784561  29.228129  -19.439527  14.213709  -152.996498  56.926045  27.411393  30.073374  -1.084443  -16.15828  8.318638  -0.582715  -12.135969  6.167528  
0.0  101.685394  0.0  -95.778524  53.250803  -172.302361  66.186528  -32.070689  -60.670199  -52.984661  30.931075  8.792799  2.417132  -2.817384  -3.226811  -35.352068  29.477716  -59.251844  14.105941  6.741459  60.141354  14.486178  -25.600443  -40.611714  -3.965281  -0.915922  2.657195  -10.92758  -2.057726  7.392937  -10.92758  -2.057726  7.392937  1.025077  29.771087  6.896266  122.449936  47.438446  176.973339  -41.22094  -20.829127  96.512  22.582769  11.228879  34.764143  -2.5782  1.799453  17.376425  60.687672  31.870514  28.988041  -19.681776  13.598323  -152.211123  57.258619  26.842943  29.657116  -0.115507  -15.947297  8.438377  0.139345  -11.96469  6.284101  
0.0  101.685394  0.0  -95.972248  53.631388  -172.617185  64.883657  -32.456159  -60.448369  -51.784128  31.161596  10.280744  2.059633  -2.550107  -3.375835  -34.354551  30.552336  -60.073612  14.614041  3.731295  64.469599  13.155548  -23.446761  -41.188604  -4.377294  -0.841995  2.59705  -12.0423  -1.821065  7.225888  -12.0423  -1.821065  7.225888  1.403103  30.218302  6.467601  122.31393  48.259781  177.158289  -39.99536  -21.424551  95.546852  20.916649  9.701763  34.491259  -1.992627  2.372117  17.676684  60.593186  31.020067  28.912745  -19.638875  13.485066  -152.075916  57.506235  26.344384  29.33953  0.623616  -15.744804  8.912805  0.699781  -11.802506  6.658227  
0.0  101.685394  0.0  -95.487977  53.960181  -172.88375  62.980734  -33.535257  -59.440362  -49.912952  31.087608  12.182708  1.847633  -2.4494  -3.485904  -32.805175  30.863418  -60.450164  15.114315  1.209839  68.661163  11.804235  -21.620095  -41.362743  -4.695241  -0.737992  2.559114  -12.89765  -1.510674  7.108913  -12.89765  -1.510674  7.108913  2.004519  30.677148  6.773906  121.877744  49.427846  177.409756  -38.891391  -21.953583  94.240049  19.533601  8.139943  34.292539  -2.768962  3.125983  18.626193  60.989324  30.585182  28.891126  -19.210033  13.577353  -152.291966  57.692821  25.938608  29.020395  1.168649  -15.495637  9.585472  1.119822  -11.606911  7.174833  
0.0  101.685394  0.0  -94.472809  54.221042  -172.696447  61.299293  -34.459815  -58.131449  -48.278845  30.665246  13.990616  1.332504  -2.346054  -3.653587  -30.860743  32.622147  -61.143937  13.383709  -1.645794  72.681358  10.451763  -20.321489  -40.970904  -4.89006  -0.628746  2.511464  -13.416606  -1.202388  6.960136  -13.416606  -1.202388  6.960135  2.429704  30.863632  7.289843  120.786701  50.533994  177.42343  -38.224089  -22.628414  92.696528  18.380173  6.52678  34.243433  -2.860802  3.480105  19.109173  61.026912  29.803837  29.289635  -18.924392  13.420065  -152.238819  57.917809  25.686339  28.808805  1.488682  -15.249076  10.236116  1.371176  -11.415872  7.668986  
0.0  101.685394  0.0  -92.983884  54.377734  -171.664606  60.239202  -34.993924  -57.051891  -47.299451  30.160431  15.40132  0.939877  -2.159613  -3.954864  -30.329815  33.689809  -62.824243  11.681915  -4.31585  75.947817  9.439421  -19.525848  -39.952837  -4.959366  -0.559484  2.404594  -13.597188  -1.02884  6.655909  -13.597188  -1.02884  6.655909  2.408313  30.906301  7.651932  118.928107  51.303502  176.74573  -38.162191  -23.468244  91.175066  17.341565  4.958453  34.296565  -3.406328  3.759063  19.585809  60.957019  29.160954  29.726146  -18.58977  13.112952  -152.059189  58.547075  25.276428  28.921664  1.582155  -14.977965  10.737753  1.448912  -11.209999  8.046327  
0.0  101.685394  0.0  -90.939179  54.470193  -169.717415  59.773972  -35.39464  -56.359739  -47.131123  30.018279  16.132076  1.200112  -1.931614  -4.172061  -31.33264  33.058065  -65.807995  10.944687  -5.8135  78.902537  9.587372  -18.983157  -38.495228  -4.946146  -0.537755  2.265577  -13.557509  -0.999625  6.273121  -13.557509  -0.999625  6.273121  2.116444  30.954458  7.92604  116.878354  51.999612  175.738126  -38.491022  -24.328384  89.863873  16.462263  3.453396  34.394172  -3.988729  4.021286  19.967911  60.612629  28.752508  30.142645  -18.252528  12.865959  -152.07004  58.841823  25.040105  28.686083  1.636202  -14.662872  10.917011  1.488056  -10.972307  8.182456  
0.0  101.685394  0.0  -88.307459  54.413314  -167.13092  59.978781  -35.794991  -56.040812  -47.679318  30.304936  16.205649  1.674508  -1.620333  -4.211056  -32.04894  30.661061  -68.724771  11.296511  -4.94794  81.957472  11.119453  -18.713614  -37.065836  -4.862082  -0.568171  2.165246  -13.329824  -1.110538  6.005476  -13.329822  -1.110538  6.005476  1.659688  30.918077  8.030313  115.209136  52.76345  175.017925  -38.867042  -25.001152  88.759813  15.749247  2.024008  34.446923  -4.600041  4.294094  20.007034  60.007068  28.529281  30.534851  -18.058087  12.541634  -152.011701  59.529431  24.331131  28.929041  1.711635  -14.311739  10.679449  1.53234  -10.70801  8.008213  
0.0  101.685394  0.0  -85.328892  54.259049  -164.507666  60.618119  -36.219906  -55.766504  -48.541184  30.950378  16.002138  3.015522  -1.451808  -4.069958  -32.39565  27.249099  -71.076649  12.743323  -2.353389  84.990156  13.812409  -18.578722  -35.753685  -4.789846  -0.613575  2.134613  -13.136468  -1.246665  5.930347  -13.136468  -1.246665  5.930347  1.473078  30.784502  8.028243  114.30727  53.486977  175.024102  -39.008032  -25.429169  87.828725  15.212903  0.703032  34.328986  -4.900162  4.678227  19.960506  59.152186  28.488262  30.72398  -17.907021  12.265422  -151.94377  59.862799  23.889979  28.577213  1.95661  -13.92908  10.200083  1.697337  -10.417881  7.657315  
0.0  101.685394  0.0  -82.262771  53.971381  -162.119266  61.519486  -36.609044  -55.471223  -48.838222  31.62822  16.212075  4.14775  -1.39373  -3.889276  -32.094297  23.977781  -72.799714  14.390622  1.370877  87.993732  17.303744  -18.505153  -34.424918  -4.764264  -0.648327  2.190012  -13.070742  -1.332507  6.087681  -13.070742  -1.332507  6.087681  1.440993  30.45704  7.811251  114.581521  54.240913  175.95354  -38.783315  -25.514474  87.066608  14.728834  -0.422586  33.990336  -3.977996  4.558024  19.330086  57.433042  28.14904  31.163905  -17.758267  11.994855  -151.729305  60.208173  23.429709  28.243846  2.423597  -13.625557  9.559605  2.026387  -10.184598  7.190527  
